name Walk4.mot
datacolumns 19
datarows 17
range 1.62300000 1.63900000
endheader

                time	   L_ground_force_vx	   L_ground_force_vy	   L_ground_force_vz	   L_ground_force_px	   L_ground_force_py	   L_ground_force_pz	   R_ground_force_vx	   R_ground_force_vy	   R_ground_force_vz	   R_ground_force_px	   R_ground_force_py	   R_ground_force_pz	   L_ground_torque_x	   L_ground_torque_y	   L_ground_torque_z	   R_ground_torque_x	   R_ground_torque_y	   R_ground_torque_z	
          1.62300000	         25.09860061	        929.89124638	         82.95221993	         -0.22354340	          0.00000000	         -0.08365788	         -0.01326036	          0.26752428	          0.02327794	          0.00020560	          0.00000000	          0.00005251	          0.00000000	         -1.67660789	          0.00000000	          0.00000000	          0.00034576	          0.00000000	
          1.62400000	         25.63830981	        931.98819498	         83.18839073	         -0.22324338	          0.00000000	         -0.08375106	         -0.01498681	          0.28855777	          0.02494242	          0.00021811	          0.00000000	          0.00005560	          0.00000000	         -1.68334389	          0.00000000	          0.00000000	          0.00053266	          0.00000000	
          1.62500000	         26.19231597	        934.09620492	         83.42072524	         -0.22294652	          0.00000000	         -0.08384201	         -0.01681179	          0.31035408	          0.02665856	          0.00023089	          0.00000000	          0.00005874	          0.00000000	         -1.69069708	          0.00000000	          0.00000000	          0.00073473	          0.00000000	
          1.62600000	         26.76084106	        936.21481582	         83.64929295	         -0.22265283	          0.00000000	         -0.08393076	         -0.01873692	          0.33289408	          0.02842408	          0.00024390	          0.00000000	          0.00006194	          0.00000000	         -1.69864623	          0.00000000	          0.00000000	          0.00095254	          0.00000000	
          1.62700000	         27.34408563	        938.34357790	         83.87416852	         -0.22236229	          0.00000000	         -0.08401733	         -0.02076357	          0.35615379	          0.03023626	          0.00025711	          0.00000000	          0.00006518	          0.00000000	         -1.70716848	          0.00000000	          0.00000000	          0.00118666	          0.00000000	
          1.62800000	         27.94222740	        940.48205210	         84.09543237	         -0.22207488	          0.00000000	         -0.08410172	         -0.02289279	          0.38010403	          0.03209197	          0.00027049	          0.00000000	          0.00006845	          0.00000000	         -1.71623963	          0.00000000	          0.00000000	          0.00143763	          0.00000000	
          1.62900000	         28.55542098	        942.62981063	         84.31317093	         -0.22179058	          0.00000000	         -0.08418396	         -0.02512533	          0.40471005	          0.03398759	          0.00028399	          0.00000000	          0.00007175	          0.00000000	         -1.72583453	          0.00000000	          0.00000000	          0.00170599	          0.00000000	
          1.63000000	         29.18379825	        944.78643778	         84.52747615	         -0.22150936	          0.00000000	         -0.08426405	         -0.02746156	          0.42993117	          0.03591899	          0.00029757	          0.00000000	          0.00007505	          0.00000000	         -1.73592745	          0.00000000	          0.00000000	          0.00199224	          0.00000000	
          1.63100000	         29.82746892	        946.95153075	         84.73844433	         -0.22123121	          0.00000000	         -0.08434200	         -0.02990147	          0.45572038	          0.03788153	          0.00031119	          0.00000000	          0.00007835	          0.00000000	         -1.74649208	          0.00000000	          0.00000000	          0.00229686	          0.00000000	
          1.63200000	         30.48652052	        949.12469992	         84.94617454	         -0.22095609	          0.00000000	         -0.08441783	         -0.03244462	          0.48202398	          0.03986998	          0.00032479	          0.00000000	          0.00008163	          0.00000000	         -1.75750150	          0.00000000	          0.00000000	          0.00262031	          0.00000000	
          1.63300000	         31.16101764	        951.30556838	         85.15076700	         -0.22068396	          0.00000000	         -0.08449153	         -0.03509009	          0.50878112	          0.04187855	          0.00033831	          0.00000000	          0.00008488	          0.00000000	         -1.76892775	          0.00000000	          0.00000000	          0.00296299	          0.00000000	
          1.63400000	         31.85100039	        953.49377043	         85.35232203	         -0.22041478	          0.00000000	         -0.08456313	         -0.03783648	          0.53592345	          0.04390082	          0.00035169	          0.00000000	          0.00008808	          0.00000000	         -1.78074159	          0.00000000	          0.00000000	          0.00332527	          0.00000000	
          1.63500000	         32.55648273	        955.68894908	         85.55093950	         -0.22014851	          0.00000000	         -0.08463264	         -0.04068181	          0.56337467	          0.04592970	          0.00036486	          0.00000000	          0.00009122	          0.00000000	         -1.79291233	          0.00000000	          0.00000000	          0.00370749	          0.00000000	
          1.63600000	         33.27745080	        957.89075234	         85.74671867	         -0.21988511	          0.00000000	         -0.08470009	         -0.04362354	          0.59105010	          0.04795742	          0.00037775	          0.00000000	          0.00009427	          0.00000000	         -1.80540797	          0.00000000	          0.00000000	          0.00410991	          0.00000000	
          1.63700000	         34.01386195	        960.09882842	         85.93975841	         -0.21962452	          0.00000000	         -0.08476551	         -0.04665847	          0.61885630	          0.04997552	          0.00039028	          0.00000000	          0.00009721	          0.00000000	         -1.81819560	          0.00000000	          0.00000000	          0.00453275	          0.00000000	
          1.63800000	         34.76564449	        962.31282034	         86.13015736	         -0.21936669	          0.00000000	         -0.08482894	         -0.04978272	          0.64669056	          0.05197474	          0.00040236	          0.00000000	          0.00010003	          0.00000000	         -1.83124202	          0.00000000	          0.00000000	          0.00497617	          0.00000000	
          1.63900000	         35.53269822	        964.53236059	         86.31801399	         -0.21911157	          0.00000000	         -0.08489041	         -0.05299169	          0.67444055	          0.05394510	          0.00041390	          0.00000000	          0.00010269	          0.00000000	         -1.84451439	          0.00000000	          0.00000000	          0.00544024	          0.00000000	
